<svg width="30" height="30" viewBox="0 0 30 30" fill="none" xmlns="http://www.w3.org/2000/svg">
<path d="M2.8125 15C2.8125 21.7307 8.26934 27.1875 15 27.1875C21.7307 27.1875 27.1875 21.7307 27.1875 15C27.1875 8.26934 21.7307 2.8125 15 2.8125C8.26934 2.8125 2.8125 8.26934 2.8125 15ZM15.2725 9.64687C15.3599 9.73359 15.4294 9.83667 15.477 9.95024C15.5245 10.0638 15.5493 10.1856 15.5498 10.3088C15.5503 10.4319 15.5265 10.5539 15.4798 10.6679C15.4331 10.7818 15.3645 10.8854 15.2777 10.9729L12.2121 14.0625H20.0391C20.2877 14.0625 20.5262 14.1613 20.702 14.3371C20.8778 14.5129 20.9766 14.7514 20.9766 15C20.9766 15.2486 20.8778 15.4871 20.702 15.6629C20.5262 15.8387 20.2877 15.9375 20.0391 15.9375H12.2121L15.2777 19.0271C15.3645 19.1146 15.4331 19.2183 15.4797 19.3324C15.5264 19.4464 15.5501 19.5685 15.5495 19.6916C15.549 19.8148 15.5242 19.9367 15.4766 20.0503C15.4289 20.1639 15.3594 20.267 15.2719 20.3537C15.1844 20.4404 15.0807 20.5091 14.9667 20.5557C14.8526 20.6023 14.7306 20.6261 14.6074 20.6255C14.4842 20.625 14.3623 20.6002 14.2487 20.5525C14.1351 20.5049 14.032 20.4353 13.9453 20.3479L9.29355 15.6604C9.1193 15.4847 9.02152 15.2474 9.02152 15C9.02152 14.7526 9.1193 14.5153 9.29355 14.3396L13.9453 9.65215C14.032 9.56455 14.1352 9.49491 14.2489 9.44723C14.3626 9.39955 14.4845 9.37475 14.6078 9.37426C14.7311 9.37377 14.8532 9.3976 14.9673 9.44437C15.0813 9.49115 15.185 9.55997 15.2725 9.64687Z" fill="#6E8952"/>
</svg>
