<svg width="30" height="30" viewBox="0 0 30 30" fill="none" xmlns="http://www.w3.org/2000/svg">
<path fill-rule="evenodd" clip-rule="evenodd" d="M15 30C23.2843 30 30 23.2843 30 15C30 6.71573 23.2843 0 15 0C6.71573 0 0 6.71573 0 15C0 23.2843 6.71573 30 15 30ZM21.0159 10.5718C21.1163 10.6193 21.2048 10.6885 21.275 10.7744C21.3455 10.8601 21.3961 10.9605 21.4231 11.0682C21.4502 11.1759 21.4529 11.2883 21.4312 11.3972L20.5312 15.8972C20.4968 16.0671 20.4047 16.22 20.2706 16.3298C20.1364 16.4397 19.9684 16.4998 19.795 16.5H12.2431L12.4194 17.5H20C20.1326 17.5 20.2598 17.5527 20.3536 17.6464C20.4473 17.7402 20.5 17.8674 20.5 18C20.5 18.1326 20.4473 18.2598 20.3536 18.3536C20.2598 18.4473 20.1326 18.5 20 18.5H12C11.8824 18.5 11.7686 18.4586 11.6786 18.3831C11.5885 18.3075 11.5279 18.2026 11.5075 18.0869L10.0806 10H8.5C8.36739 10 8.24021 9.94732 8.14645 9.85355C8.05268 9.75978 8 9.63261 8 9.5C8 9.36739 8.05268 9.24022 8.14645 9.14645C8.24021 9.05268 8.36739 9 8.5 9H10.5C10.6176 8.99998 10.7314 9.04138 10.8214 9.11693C10.9115 9.19248 10.9721 9.29735 10.9925 9.41313L11.1841 10.5H20.695C20.806 10.4998 20.9156 10.5243 21.0159 10.5718ZM12.5 21C13.0523 21 13.5 20.5523 13.5 20C13.5 19.4477 13.0523 19 12.5 19C11.9477 19 11.5 19.4477 11.5 20C11.5 20.5523 11.9477 21 12.5 21ZM19.5 21C20.0523 21 20.5 20.5523 20.5 20C20.5 19.4477 20.0523 19 19.5 19C18.9477 19 18.5 19.4477 18.5 20C18.5 20.5523 18.9477 21 19.5 21Z" fill="#6E8952"/>
</svg>
